<svg xmlns="http://www.w3.org/2000/svg" xmlns:xlink="http://www.w3.org/1999/xlink" preserveAspectRatio="xMidYMid" width="187" height="98" viewBox="0 0 187 98">
  <defs>
    <style>
      .cls-1 {
        fill: #fff;
        fill-rule: evenodd;
      }
    </style>
  </defs>
  <path d="M183.167,82.775 L183.167,82.547 C184.212,82.547 183.516,81.113 183.516,81.113 L183.114,80.135 L179.938,80.135 C179.938,80.135 179.107,82.654 181.224,82.547 L181.224,82.775 L177.928,82.775 L177.928,82.547 C178.277,82.520 178.612,82.627 179.925,79.452 L182.243,73.342 L182.470,73.342 C185.753,81.221 185.874,81.569 185.874,81.569 C186.329,82.641 186.651,82.520 186.999,82.547 L186.999,82.775 L183.167,82.775 ZM181.439,75.995 L179.978,79.907 L183.033,79.907 L181.439,75.995 ZM175.337,76.772 L172.926,82.775 L172.698,82.775 C169.415,74.883 169.268,74.656 169.268,74.656 C168.826,73.584 168.343,73.570 167.995,73.570 L167.995,73.342 L172.256,73.342 L172.256,73.570 C171.157,73.570 171.666,75.124 171.666,75.124 L173.716,80.229 L175.123,76.705 C175.123,76.705 176.342,73.570 174.132,73.570 L174.132,73.342 L177.923,73.342 L177.923,73.570 C177.307,73.570 176.691,73.570 175.337,76.772 ZM162.161,82.895 C159.213,82.895 157.538,80.792 157.538,78.125 C157.538,75.472 159.213,73.222 162.161,73.222 C165.109,73.222 166.783,75.472 166.783,78.125 C166.783,80.792 165.109,82.895 162.161,82.895 ZM162.161,73.450 C160.566,73.450 159.829,74.455 159.829,78.125 C159.829,81.810 160.566,82.667 162.161,82.667 C163.742,82.667 164.465,81.810 164.465,78.125 C164.465,74.455 163.742,73.450 162.161,73.450 ZM151.857,79.854 C151.415,78.474 150.182,78.474 150.182,78.474 L149.552,78.474 L149.552,81.154 C149.552,82.065 149.981,82.547 150.543,82.547 L150.543,82.775 L146.644,82.775 L146.644,82.547 C147.221,82.547 147.609,82.065 147.609,81.154 L147.609,74.762 C147.609,73.932 147.234,73.570 146.644,73.570 L146.644,73.342 L149.967,73.342 C152.634,73.342 154.510,73.664 154.510,75.901 C154.510,77.536 153.491,78.139 151.897,78.326 C152.768,78.233 153.840,78.822 154.496,81.234 C154.764,82.252 155.716,82.520 156.064,82.547 L156.064,82.775 L154.831,82.775 C152.446,82.761 152.794,82.761 151.857,79.854 ZM152.325,75.901 C152.325,73.570 151.267,73.570 149.967,73.570 L149.552,73.570 L149.552,78.246 L149.967,78.246 C151.267,78.246 152.325,78.233 152.325,75.901 ZM142.541,75.580 L142.541,79.559 C142.541,82.426 140.411,82.895 139.232,82.895 C137.410,82.895 135.909,81.662 135.909,79.479 L135.909,74.749 C135.909,73.932 135.427,73.570 134.837,73.570 L134.837,73.342 L139.098,73.342 L139.098,73.570 C138.522,73.570 137.852,73.785 137.852,74.749 L137.852,79.573 C137.852,81.154 138.830,82.091 140.103,82.091 C141.121,82.091 142.314,81.247 142.314,79.559 L142.314,75.580 C142.314,75.580 142.341,73.557 140.491,73.570 L140.491,73.342 L144.538,73.342 L144.538,73.570 C142.515,73.557 142.541,75.580 142.541,75.580 ZM132.288,82.332 C131.458,82.654 130.225,82.895 128.791,82.895 C125.897,82.895 124.088,80.725 124.088,78.058 C124.088,75.392 125.897,73.222 128.791,73.222 C130.185,73.222 131.377,73.383 132.208,73.932 L132.114,76.223 L131.659,76.223 C131.270,74.133 130.386,73.450 128.791,73.450 C127.264,73.450 126.540,74.374 126.540,78.058 C126.540,81.743 127.291,82.667 128.791,82.667 C130.359,82.667 130.573,82.440 130.573,81.140 C130.573,79.317 130.198,79.251 129.435,79.251 L129.435,79.023 L133.213,79.023 L133.213,79.251 C132.462,79.251 132.288,79.506 132.288,82.332 ZM123.715,92.974 C123.509,92.750 123.258,92.579 122.963,92.458 C122.668,92.338 122.366,92.277 122.056,92.277 C121.707,92.277 121.384,92.341 121.086,92.467 C120.788,92.592 120.529,92.767 120.308,92.991 C120.087,93.214 119.916,93.481 119.792,93.790 C119.669,94.099 119.608,94.437 119.608,94.804 C119.608,95.165 119.669,95.500 119.792,95.809 C119.916,96.119 120.087,96.386 120.308,96.612 C120.529,96.839 120.793,97.015 121.103,97.141 C121.412,97.267 121.753,97.330 122.125,97.330 C122.372,97.330 122.630,97.300 122.899,97.240 C123.168,97.179 123.414,97.093 123.638,96.977 L123.638,95.113 L122.237,95.113 L122.237,94.443 L124.359,94.443 L124.359,97.433 C124.010,97.628 123.642,97.771 123.255,97.862 C122.869,97.954 122.478,98.000 122.082,98.000 C121.607,98.000 121.172,97.923 120.776,97.768 C120.381,97.613 120.038,97.396 119.749,97.115 C119.460,96.835 119.235,96.498 119.075,96.105 C118.915,95.713 118.834,95.279 118.834,94.804 C118.834,94.323 118.919,93.886 119.088,93.493 C119.257,93.101 119.490,92.766 119.788,92.488 C120.086,92.211 120.432,91.994 120.828,91.839 C121.223,91.685 121.650,91.607 122.108,91.607 C122.509,91.607 122.894,91.668 123.264,91.788 C123.633,91.908 123.964,92.114 124.257,92.406 L123.715,92.974 ZM114.035,82.547 C114.597,82.547 114.812,81.850 114.812,80.939 L114.812,75.191 C114.812,74.361 114.624,73.570 114.035,73.570 L114.035,73.342 L121.404,73.342 L121.404,75.888 L121.176,75.888 C120.868,73.570 117.237,73.570 117.237,73.570 L116.755,73.570 L116.755,77.897 L117.237,77.897 C117.237,77.897 119.273,77.897 119.407,76.505 L119.635,76.505 L119.635,79.519 L119.407,79.519 C119.273,78.125 117.237,78.125 117.237,78.125 L116.755,78.125 L116.755,82.547 L117.237,82.547 C117.237,82.547 120.788,82.547 121.350,79.854 L121.578,79.854 L121.578,82.775 L114.035,82.775 L114.035,82.547 ZM109.485,20.727 C106.254,25.510 99.981,34.818 96.310,40.421 L99.961,45.984 L94.303,54.520 L94.303,54.523 L88.649,45.986 L91.502,41.581 L93.509,44.554 L92.426,46.223 L94.302,49.202 L94.302,49.202 L96.179,46.221 L94.333,43.478 C94.333,43.478 94.333,43.479 94.332,43.480 L92.324,40.490 L79.039,20.737 C78.185,19.468 76.757,18.708 75.227,18.708 L70.599,18.708 L70.599,17.639 L78.822,17.639 C80.410,17.639 81.892,18.439 82.763,19.767 L94.289,37.340 C97.700,32.028 103.101,23.688 105.630,19.787 C106.499,18.446 107.986,17.639 109.584,17.639 L117.790,17.639 L117.790,18.708 L113.289,18.708 C111.764,18.708 110.339,19.462 109.485,20.727 ZM102.864,17.499 L101.544,19.586 L95.479,9.860 C95.809,9.600 96.139,9.378 96.139,9.378 C96.139,9.378 95.745,7.297 95.745,6.212 C95.745,5.216 96.830,3.021 98.378,2.691 C98.382,2.691 98.384,2.691 98.386,2.691 C98.143,2.440 97.633,1.932 97.633,1.932 L99.018,-0.004 L99.810,2.057 L99.047,2.678 L99.057,2.678 C100.034,2.875 100.624,4.137 100.624,5.432 C100.624,7.049 98.911,9.587 98.911,9.587 L99.920,10.215 C99.546,12.201 101.303,12.131 101.278,10.463 C101.633,9.917 102.686,9.721 102.686,9.721 C102.686,9.721 102.217,3.741 105.691,3.561 C105.481,3.294 105.172,2.911 105.172,2.911 L106.634,1.276 L107.142,3.227 L106.378,3.725 C106.379,3.725 106.379,3.725 106.379,3.725 C107.438,4.366 108.479,6.758 105.370,9.917 C105.548,10.050 106.296,10.761 106.296,10.761 C105.789,12.486 107.261,12.588 107.438,11.338 C107.438,11.008 107.394,10.634 108.143,10.253 C108.276,9.137 108.409,6.758 108.409,6.758 C108.409,6.758 109.240,4.550 110.604,3.928 L110.382,3.389 C110.382,3.389 111.106,2.583 111.791,2.266 L108.669,14.301 C106.315,14.301 104.126,15.507 102.864,17.499 ZM99.425,22.803 L99.108,23.316 L94.337,30.923 L89.242,22.803 L89.255,22.777 L94.318,14.720 L94.337,14.694 L94.356,14.720 L99.412,22.777 L99.425,22.803 ZM94.337,20.195 L92.693,22.803 L94.337,25.423 L95.974,22.803 L94.337,20.195 ZM87.123,19.516 L85.848,17.499 C84.591,15.507 82.402,14.301 80.042,14.301 L79.998,14.301 L76.876,2.266 C77.561,2.583 78.291,3.389 78.291,3.389 L78.063,3.928 C79.427,4.550 80.264,6.758 80.264,6.758 C80.264,6.758 80.391,9.137 80.531,10.253 C81.273,10.634 81.229,11.008 81.229,11.338 C81.406,12.588 82.878,12.486 82.371,10.761 C82.371,10.761 83.119,10.050 83.297,9.917 C80.188,6.758 81.229,4.366 82.288,3.725 C82.289,3.725 82.289,3.725 82.290,3.724 L81.528,3.227 L82.035,1.276 L83.497,2.911 C83.497,2.911 83.188,3.294 82.977,3.561 C86.450,3.743 85.981,9.721 85.981,9.721 C85.981,9.721 87.034,9.917 87.389,10.463 C87.364,12.131 89.121,12.201 88.747,10.215 L89.756,9.587 C89.756,9.587 88.049,7.049 88.049,5.432 C88.049,4.131 88.639,2.875 89.610,2.672 L89.615,2.672 L88.860,2.057 L89.651,-0.004 L91.036,1.932 C91.036,1.932 90.535,2.432 90.289,2.685 C91.844,3.015 92.922,5.216 92.922,6.212 C92.922,7.297 92.528,9.378 92.528,9.378 C92.528,9.378 92.871,9.606 93.201,9.866 L87.123,19.516 ZM74.710,73.570 C73.611,73.570 74.120,75.124 74.120,75.124 L76.170,80.229 L77.577,76.705 C77.577,76.705 78.796,73.570 76.586,73.570 L76.586,73.342 L80.378,73.342 L80.378,73.570 C79.761,73.570 79.145,73.570 77.792,76.772 L75.380,82.775 L75.152,82.775 C71.869,74.883 71.722,74.656 71.722,74.656 C71.280,73.584 70.797,73.570 70.449,73.570 L70.449,73.342 L74.710,73.342 L74.710,73.570 ZM73.318,91.762 L74.186,91.762 L71.917,95.225 L71.917,97.845 L71.196,97.845 L71.196,95.225 L68.927,91.762 L69.846,91.762 L71.556,94.512 L73.318,91.762 ZM65.984,97.094 C65.700,97.377 65.365,97.599 64.979,97.759 C64.592,97.920 64.167,98.000 63.703,98.000 C63.238,98.000 62.813,97.920 62.426,97.759 C62.040,97.599 61.705,97.377 61.421,97.094 C61.137,96.810 60.917,96.472 60.759,96.080 C60.602,95.687 60.523,95.262 60.523,94.804 C60.523,94.346 60.602,93.921 60.759,93.528 C60.917,93.136 61.137,92.797 61.421,92.514 C61.705,92.230 62.040,92.009 62.426,91.847 C62.813,91.688 63.238,91.607 63.703,91.607 C64.167,91.607 64.592,91.688 64.979,91.847 C65.365,92.009 65.700,92.230 65.984,92.514 C66.268,92.797 66.488,93.136 66.646,93.528 C66.803,93.921 66.882,94.346 66.882,94.804 C66.882,95.262 66.803,95.687 66.646,96.080 C66.488,96.472 66.268,96.810 65.984,97.094 ZM65.932,93.820 C65.815,93.513 65.650,93.245 65.438,93.017 C65.226,92.787 64.973,92.607 64.678,92.475 C64.383,92.343 64.058,92.277 63.703,92.277 C63.347,92.277 63.022,92.343 62.727,92.475 C62.432,92.607 62.179,92.787 61.967,93.017 C61.755,93.245 61.590,93.513 61.472,93.820 C61.355,94.126 61.297,94.455 61.297,94.804 C61.297,95.153 61.355,95.481 61.472,95.788 C61.590,96.094 61.755,96.362 61.967,96.591 C62.179,96.820 62.432,97.001 62.727,97.132 C63.022,97.264 63.347,97.330 63.703,97.330 C64.058,97.330 64.383,97.264 64.678,97.132 C64.973,97.001 65.226,96.820 65.438,96.591 C65.650,96.362 65.815,96.094 65.932,95.788 C66.049,95.481 66.108,95.153 66.108,94.804 C66.108,94.455 66.049,94.126 65.932,93.820 ZM60.030,82.547 C61.075,82.547 60.378,81.113 60.378,81.113 L59.977,80.135 L56.801,80.135 C56.801,80.135 55.970,82.654 58.087,82.547 L58.087,82.775 L54.791,82.775 L54.791,82.547 C55.140,82.520 55.475,82.627 56.788,79.452 L59.106,73.342 L59.333,73.342 C62.616,81.221 62.737,81.569 62.737,81.569 C63.192,82.641 63.514,82.520 63.862,82.547 L63.862,82.775 L60.030,82.775 L60.030,82.547 ZM58.302,75.995 L56.841,79.907 L59.896,79.907 L58.302,75.995 ZM56.334,91.813 C56.623,91.847 56.883,91.922 57.112,92.037 C57.341,92.152 57.527,92.320 57.670,92.539 C57.814,92.760 57.885,93.059 57.885,93.437 C57.885,93.885 57.751,94.245 57.481,94.520 C57.212,94.795 56.840,94.970 56.364,95.044 L58.091,97.845 L57.206,97.845 L55.557,95.113 L54.629,95.113 L54.629,97.845 L53.907,97.845 L53.907,91.762 L55.462,91.762 C55.754,91.762 56.045,91.779 56.334,91.813 ZM54.629,94.443 L55.273,94.443 C55.473,94.443 55.681,94.437 55.896,94.426 C56.111,94.414 56.308,94.377 56.489,94.314 C56.669,94.251 56.818,94.152 56.936,94.017 C57.053,93.883 57.112,93.690 57.112,93.437 C57.112,93.220 57.069,93.045 56.983,92.913 C56.897,92.782 56.784,92.680 56.644,92.608 C56.503,92.536 56.345,92.489 56.171,92.467 C55.996,92.443 55.820,92.432 55.643,92.432 L54.629,92.432 L54.629,94.443 ZM51.708,76.745 L51.708,82.775 L50.998,82.775 L45.143,75.419 L45.143,79.358 C45.143,79.358 45.129,82.547 46.978,82.547 L46.978,82.775 L42.905,82.775 L42.905,82.547 C44.928,82.547 44.915,79.358 44.915,79.358 L44.915,75.178 L44.392,74.521 C43.535,73.450 43.146,73.597 42.798,73.570 L42.798,73.342 L46.081,73.342 L51.480,80.001 L51.480,76.745 C51.480,76.745 51.493,73.557 49.645,73.570 L49.645,73.342 L53.704,73.342 L53.704,73.570 C51.681,73.557 51.708,76.745 51.708,76.745 ZM36.993,82.547 C38.038,82.547 37.342,81.113 37.342,81.113 L36.940,80.135 L33.764,80.135 C33.764,80.135 32.933,82.654 35.050,82.547 L35.050,82.775 L31.754,82.775 L31.754,82.547 C32.103,82.520 32.438,82.627 33.751,79.452 L36.069,73.342 L36.297,73.342 C39.579,81.221 39.700,81.569 39.700,81.569 C40.155,82.641 40.477,82.520 40.825,82.547 L40.825,82.775 L36.993,82.775 L36.993,82.547 ZM35.265,75.995 L33.804,79.907 L36.859,79.907 L35.265,75.995 ZM21.749,82.547 C22.325,82.547 22.700,81.957 22.700,81.046 L22.700,74.762 C22.700,73.945 22.218,73.570 21.642,73.570 L21.642,73.342 L25.889,73.342 L25.889,73.570 C25.313,73.570 24.643,73.798 24.643,74.762 L24.643,82.547 L25.125,82.547 C25.125,82.547 28.676,82.547 29.132,79.868 L29.359,79.868 L29.359,82.775 L21.749,82.775 L21.749,82.547 ZM15.128,82.547 C15.704,82.547 16.267,82.065 16.267,81.154 L16.267,74.762 C16.267,73.932 15.717,73.570 15.128,73.570 L15.128,73.342 L19.349,73.342 L19.349,73.570 C18.772,73.570 18.210,73.932 18.210,74.762 L18.210,81.154 C18.210,82.065 18.786,82.547 19.349,82.547 L19.349,82.775 L15.128,82.775 L15.128,82.547 ZM8.816,82.547 C9.379,82.547 9.781,82.065 9.781,81.154 L9.781,73.972 L6.217,82.895 L5.990,82.895 L2.238,74.857 L2.238,79.385 C2.238,79.385 2.211,82.547 4.060,82.547 L4.060,82.775 L0.000,82.775 L0.000,82.547 C2.010,82.547 2.010,79.385 2.010,79.385 L2.010,74.495 C1.501,73.597 0.831,73.597 0.496,73.570 L0.496,73.342 L3.872,73.342 L7.101,80.135 L9.781,73.342 L12.743,73.342 L12.743,73.570 C12.166,73.570 11.711,73.932 11.711,74.749 L11.711,81.154 C11.711,82.065 12.287,82.547 12.863,82.547 L12.863,82.775 L8.816,82.775 L8.816,82.547 ZM78.602,91.762 L81.189,97.845 L80.347,97.845 L79.728,96.350 L76.687,96.350 L76.059,97.845 L75.243,97.845 L77.924,91.762 L78.602,91.762 ZM79.453,95.680 L78.251,92.690 L78.233,92.690 L76.970,95.680 L79.453,95.680 ZM76.772,24.141 C76.810,24.198 76.835,24.243 76.848,24.249 L80.649,29.845 L80.649,45.617 C80.649,50.736 84.842,51.136 85.020,51.149 L84.995,51.758 L70.891,51.758 L70.865,51.149 C71.043,51.130 75.243,50.724 75.243,45.617 L75.243,22.809 C75.915,22.967 76.556,23.824 76.772,24.141 ZM86.733,73.557 C86.451,73.557 85.513,73.543 86.425,75.085 L88.314,78.166 L89.211,76.303 C89.211,76.303 90.404,73.570 88.474,73.570 L88.474,73.342 L92.494,73.342 L92.494,73.570 C92.146,73.570 90.833,73.597 89.332,76.531 L88.448,78.393 L88.448,81.154 C88.448,82.065 89.024,82.547 89.587,82.547 L89.587,82.775 L85.366,82.775 L85.366,82.547 C85.929,82.547 86.505,82.065 86.505,81.154 L86.505,79.077 C84.535,75.593 83.892,74.615 83.892,74.615 C83.303,73.597 82.794,73.557 82.459,73.557 L82.459,73.342 L86.733,73.342 L86.733,73.557 ZM84.437,97.175 L87.221,97.175 L87.221,97.845 L83.715,97.845 L83.715,91.762 L84.437,91.762 L84.437,97.175 ZM96.699,91.831 C96.923,91.877 97.144,91.950 97.365,92.049 C97.586,92.150 97.797,92.281 98.001,92.441 C98.204,92.601 98.384,92.794 98.538,93.021 C98.693,93.247 98.816,93.508 98.908,93.803 C98.999,94.098 99.045,94.431 99.045,94.804 C99.045,95.176 98.999,95.510 98.908,95.805 C98.816,96.100 98.693,96.360 98.538,96.587 C98.384,96.813 98.204,97.006 98.001,97.167 C97.797,97.327 97.586,97.457 97.365,97.557 C97.144,97.658 96.923,97.731 96.699,97.777 C96.476,97.823 96.264,97.845 96.063,97.845 L93.726,97.845 L93.726,91.762 L96.063,91.762 C96.264,91.762 96.476,91.785 96.699,91.831 ZM94.448,92.432 L94.448,97.175 L95.823,97.175 C96.172,97.175 96.496,97.130 96.794,97.038 C97.091,96.946 97.350,96.804 97.567,96.612 C97.785,96.420 97.957,96.176 98.082,95.878 C98.209,95.580 98.272,95.222 98.272,94.804 C98.272,94.385 98.209,94.028 98.082,93.730 C97.957,93.432 97.785,93.187 97.567,92.995 C97.350,92.803 97.091,92.662 96.794,92.570 C96.496,92.478 96.172,92.432 95.823,92.432 L94.448,92.432 ZM94.358,82.065 L94.358,79.492 L94.586,79.492 C94.881,80.309 95.644,82.667 98.030,82.667 C99.463,82.667 99.905,80.725 98.271,79.532 L96.207,78.233 C94.305,77.040 93.594,75.700 94.707,74.240 C94.707,74.240 95.363,73.222 97.480,73.222 C99.772,73.222 100.924,73.865 100.924,73.865 L100.924,76.116 L100.696,76.116 C100.441,75.406 99.624,73.450 97.480,73.450 C96.033,73.450 95.511,75.218 97.252,76.357 L99.316,77.724 C101.084,78.889 101.821,80.336 100.816,81.797 C100.816,81.797 100.187,82.895 98.030,82.895 C95.430,82.895 94.358,82.065 94.358,82.065 ZM105.747,92.432 L102.645,92.432 L102.645,94.339 L105.541,94.339 L105.541,95.010 L102.645,95.010 L102.645,97.175 L105.902,97.175 L105.902,97.845 L101.924,97.845 L101.924,91.762 L105.747,91.762 L105.747,92.432 ZM106.456,82.547 L106.456,82.775 L103.655,82.775 L103.655,82.547 C104.366,82.360 104.258,82.051 104.258,80.953 L104.258,75.258 C104.258,74.227 104.298,73.691 103.655,73.570 L103.655,73.342 L106.456,73.342 L106.456,73.570 C106.081,73.691 106.134,74.227 106.134,75.258 L106.134,78.125 L109.376,78.125 L109.376,75.258 C109.376,74.227 109.430,73.691 109.055,73.570 L109.055,73.342 L111.842,73.342 L111.842,73.570 C111.212,73.691 111.252,74.227 111.252,75.258 L111.252,80.953 C111.252,82.051 111.145,82.360 111.842,82.547 L111.842,82.775 L109.055,82.775 L109.055,82.547 C109.417,82.413 109.376,82.051 109.376,80.953 L109.376,78.393 L106.134,78.393 L106.134,80.953 C106.134,82.051 106.081,82.413 106.456,82.547 ZM111.791,24.249 C111.804,24.243 111.829,24.198 111.867,24.141 C112.083,23.824 112.724,22.967 113.396,22.809 L113.396,45.617 C113.396,50.724 117.596,51.130 117.774,51.149 L117.748,51.758 L103.644,51.758 L103.619,51.149 C103.797,51.136 107.990,50.736 107.990,45.617 L107.990,29.845 L111.791,24.249 ZM109.477,97.158 C109.712,97.272 109.961,97.330 110.224,97.330 C110.379,97.330 110.535,97.307 110.693,97.261 C110.850,97.215 110.992,97.148 111.118,97.059 C111.244,96.971 111.347,96.860 111.427,96.728 C111.508,96.597 111.547,96.445 111.547,96.273 C111.547,96.084 111.516,95.930 111.453,95.813 C111.390,95.696 111.293,95.595 111.161,95.508 C111.029,95.422 110.863,95.345 110.663,95.276 C110.462,95.208 110.227,95.127 109.958,95.036 C109.740,94.967 109.540,94.888 109.357,94.799 C109.173,94.711 109.014,94.602 108.880,94.473 C108.745,94.344 108.639,94.189 108.562,94.009 C108.484,93.829 108.446,93.612 108.446,93.360 C108.446,93.068 108.503,92.813 108.617,92.596 C108.732,92.378 108.887,92.196 109.081,92.049 C109.276,91.904 109.497,91.794 109.743,91.719 C109.989,91.644 110.247,91.607 110.516,91.607 C110.860,91.607 111.174,91.660 111.457,91.766 C111.741,91.872 111.995,92.057 112.218,92.321 L111.625,92.836 C111.505,92.642 111.344,92.499 111.144,92.411 C110.943,92.322 110.734,92.277 110.516,92.277 C110.356,92.277 110.199,92.297 110.044,92.338 C109.889,92.378 109.750,92.438 109.627,92.518 C109.504,92.598 109.405,92.704 109.331,92.836 C109.256,92.968 109.219,93.123 109.219,93.300 C109.219,93.437 109.241,93.559 109.284,93.665 C109.326,93.771 109.396,93.867 109.494,93.953 C109.591,94.039 109.723,94.119 109.889,94.194 C110.055,94.268 110.259,94.343 110.499,94.418 C110.734,94.492 110.962,94.572 111.183,94.658 C111.403,94.743 111.598,94.852 111.767,94.984 C111.936,95.116 112.070,95.280 112.171,95.478 C112.271,95.676 112.321,95.924 112.321,96.221 C112.321,96.525 112.261,96.788 112.140,97.012 C112.020,97.235 111.861,97.420 111.664,97.566 C111.466,97.712 111.238,97.821 110.981,97.893 C110.723,97.964 110.456,98.000 110.181,98.000 C110.004,98.000 109.826,97.984 109.648,97.953 C109.471,97.922 109.300,97.873 109.137,97.806 C108.974,97.741 108.821,97.655 108.678,97.549 C108.534,97.443 108.411,97.313 108.308,97.158 L108.927,96.652 C109.059,96.875 109.242,97.043 109.477,97.158 ZM115.956,97.845 L115.234,97.845 L115.234,91.762 L115.956,91.762 L115.956,97.845 ZM132.024,96.814 L132.042,96.814 L132.042,91.762 L132.763,91.762 L132.763,97.845 L131.852,97.845 L128.329,92.793 L128.312,92.793 L128.312,97.845 L127.591,97.845 L127.591,91.762 L128.501,91.762 L132.024,96.814 Z" class="cls-1"/>
</svg>
