<?xml version="1.0" encoding="utf-8"?>
<!-- Generator: Adobe Illustrator 19.0.0, SVG Export Plug-In . SVG Version: 6.00 Build 0)  -->
<svg version="1.1" id="Layer_1" xmlns="http://www.w3.org/2000/svg" xmlns:xlink="http://www.w3.org/1999/xlink" x="0px" y="0px"
	 viewBox="-158 367.9 74 107.1" style="enable-background:new -158 367.9 74 107.1;" xml:space="preserve">
<style type="text/css">
	.st0{fill:#181E47;}
</style>
<g id="XMLID_2_">
	<g id="XMLID_60_">
		<g id="XMLID_61_">
			<g id="XMLID_62_">
				<g id="XMLID_63_">
					<g id="XMLID_64_">
						<path id="XMLID_65_" class="st0" d="M-86.3,474.9h2.3v-3.6L-86.3,474.9z"/>
					</g>
				</g>
			</g>
		</g>
	</g>
	<g id="XMLID_47_">
		<g id="XMLID_54_">
			<g id="XMLID_55_">
				<g id="XMLID_56_">
					<g id="XMLID_57_">
						<path id="XMLID_58_" class="st0" d="M-84,367.9h-2.7l-5.1,8.1l0,0l7.8,12.4v-8.7l-2.4-3.7l2.4-3.8V367.9z"/>
					</g>
				</g>
			</g>
		</g>
		<g id="XMLID_51_">
			<g id="XMLID_52_">
				<path id="XMLID_53_" class="st0" d="M-120.8,420.7v1h22.2v-1c-0.3,0-6.9-0.7-6.9-8.7v-24.9l-6-8.8c0,0-0.1-0.1-0.1-0.2
					c-0.3-0.5-1.3-1.9-2.4-2.1v36C-113.9,420-120.5,420.7-120.8,420.7z"/>
			</g>
		</g>
		<g id="XMLID_48_">
			<path id="XMLID_50_" class="st0" d="M-87,403.9l-20.9-31.1c-1.4-2-3.6-3.2-6-3.2h-7.3v-1.7h13c2.5,0,4.8,1.3,6.2,3.4l18,27.5v9.6
				L-87,403.9z"/>
			<polygon id="XMLID_49_" class="st0" points="-84,425.8 -86.8,421.6 -92.8,412.6 -88.3,405.6 -85.1,410.3 -86.8,413 -84,417.4 			
				"/>
		</g>
	</g>
	<g id="XMLID_35_">
		<g id="XMLID_41_">
			<g id="XMLID_42_">
				<g id="XMLID_43_">
					<g id="XMLID_44_">
						<path id="XMLID_45_" class="st0" d="M-84,454.5l-7.4,11.7l-0.5,0.8l0,0l5.1,8h2.8v-4.2l-2.4-3.8l2.4-3.8V454.5z"/>
					</g>
				</g>
			</g>
		</g>
		<g id="XMLID_38_">
			<g id="XMLID_39_">
				<path id="XMLID_40_" class="st0" d="M-120.8,422.3v-1h22.2v1c-0.3,0-6.9,0.7-6.9,8.7v24.9l-6,8.8c0,0-0.1,0.1-0.1,0.2
					c-0.3,0.5-1.3,1.9-2.4,2.1v-36C-113.9,423-120.5,422.4-120.8,422.3z"/>
			</g>
		</g>
		<g id="XMLID_36_">
			<path id="XMLID_37_" class="st0" d="M-84,425.8l-2.7,4.3l2.7,4v10.4c-5.4,8.4-13.7,21.2-17.6,27.3c-1,1.6-2.6,2.7-4.5,3.2h-14.7
				v-1.5h7.1c2.4,0,4.6-1.2,6-3.2c5.1-7.5,15-22.2,20.8-31l-5.8-8.8l5.9-8.9l2.8-4.2V425.8z"/>
		</g>
	</g>
	<g id="XMLID_28_">
		<g id="XMLID_29_">
			<g id="XMLID_30_">
				<g id="XMLID_31_">
					<g id="XMLID_32_">
						<path id="XMLID_33_" class="st0" d="M-154.6,474.7l-2.7-4.3l0,0l0,0l-0.5,0.8l-0.2,0.1v3.7h3.7L-154.6,474.7z"/>
					</g>
				</g>
			</g>
		</g>
	</g>
	<g id="XMLID_16_">
		<g id="XMLID_22_">
			<g id="XMLID_23_">
				<g id="XMLID_24_">
					<g id="XMLID_25_">
						<path id="XMLID_26_" class="st0" d="M-149.8,376l-5-8.1h-3.2v4.4l0.2-0.4l2.6,4.1l-2.6,4.1l-0.2-0.3v8.7l0.2,0.4l7.6-12
							L-149.8,376L-149.8,376z"/>
					</g>
				</g>
			</g>
		</g>
		<g id="XMLID_19_">
			<g id="XMLID_20_">
				<path id="XMLID_21_" class="st0" d="M-120.8,420.7v1h-22.3v-1c0.3,0,6.9-0.7,6.9-8.7v-24.9l6-8.8c0,0,0.1-0.1,0.1-0.2
					c0.3-0.5,1.3-1.9,2.4-2.1v36C-127.7,420-121.1,420.7-120.8,420.7z"/>
			</g>
		</g>
		<g id="XMLID_17_">
			<path id="XMLID_18_" class="st0" d="M-120.8,367.9v1.7h-7.1c-2.4,0-4.6,1.2-6,3.2c-5.1,7.5-15,22.2-20.8,31l5.8,8.8l-5.9,8.9
				l-2.8,4.2l-0.2,0.4l-0.2-0.3l0,0v-8.4l0.2,0.3l0.2-0.4l2.7-4.3l-2.9-4.3l-0.2-0.4v-9.6l0.1,0.2c5.4-8.3,13.9-21.5,17.9-27.6
				c1.4-2.1,3.7-3.4,6.3-3.4H-120.8z"/>
		</g>
	</g>
	<g id="XMLID_3_">
		<g id="XMLID_10_">
			<g id="XMLID_11_">
				<g id="XMLID_12_">
					<g id="XMLID_13_">
						<path id="XMLID_14_" class="st0" d="M-157.8,454.2l-0.2,0.3v8.7l0.2-0.3l2.6,4.1l-2.1,3.3l-0.5,0.8l0,0l-0.2-0.3v4.1h3.2
							l0.2-0.3l4.8-7.6l0,0L-157.8,454.2z"/>
					</g>
				</g>
			</g>
		</g>
		<g id="XMLID_7_">
			<g id="XMLID_8_">
				<path id="XMLID_9_" class="st0" d="M-120.8,422.3v-1h-22.3v1c0.3,0,6.9,0.7,6.9,8.7v24.9l6,8.8c0,0,0.1,0.1,0.1,0.2
					c0.3,0.5,1.3,1.9,2.4,2.1v-36C-127.7,423-121.1,422.4-120.8,422.3z"/>
			</g>
		</g>
		<g id="XMLID_4_">
			<polygon id="XMLID_6_" class="st0" points="-148.8,430.5 -153.3,437.4 -156.5,432.7 -154.8,430.1 -157.6,425.7 -157.7,425.4 
				-158,425.8 -158,425.8 -158,417.4 -157.7,417 -157.6,417.3 -154.8,421.5 			"/>
			<path id="XMLID_5_" class="st0" d="M-120.4,473.5v1.5h-14.7c-1.8-0.4-3.4-1.6-4.5-3.1l-18.1-27.8c-0.1,0.1-0.2,0.3-0.3,0.4v-10.4
				l0.2,0.3l0,0l3.2,4.7l20.9,31.1c1.4,2,3.6,3.3,6,3.3L-120.4,473.5L-120.4,473.5z"/>
		</g>
	</g>
</g>
</svg>
